<?xml version="1.0" standalone="no"?>
<!DOCTYPE svg PUBLIC "-//W3C//DTD SVG 20010904//EN"
 "http://www.w3.org/TR/2001/REC-SVG-20010904/DTD/svg10.dtd">
<svg version="1.0" xmlns="http://www.w3.org/2000/svg"
 width="750.000000pt" height="750.000000pt" viewBox="0 0 750.000000 750.000000"
 preserveAspectRatio="xMidYMid meet">
<metadata>
Created by potrace 1.11, written by Peter Selinger 2001-2013
</metadata>
<g transform="translate(0.000000,750.000000) scale(0.100000,-0.100000)"
fill="#000000" stroke="none">
<path d="M190 3755 l0 -3565 3565 0 3565 0 0 3565 0 3565 -3565 0 -3565 0 0
-3565z m2121 1250 c299 -52 500 -251 585 -580 32 -125 44 -364 24 -508 -43
-316 -185 -538 -415 -648 -127 -61 -188 -74 -360 -73 -175 0 -248 14 -371 74
-140 68 -262 200 -328 357 -106 253 -113 640 -17 917 67 191 214 347 396 420
133 53 325 69 486 41z m1864 -15 c160 -51 245 -138 245 -252 0 -90 -70 -155
-167 -157 -32 -1 -33 0 -33 42 0 102 -54 195 -139 239 -46 24 -65 28 -135 28
-110 0 -167 -21 -228 -81 -59 -59 -83 -131 -76 -228 13 -172 93 -248 393 -376
230 -98 355 -195 416 -321 28 -60 33 -82 37 -170 7 -161 -35 -272 -140 -369
-104 -96 -230 -141 -423 -152 -187 -9 -353 33 -448 116 -20 18 -49 58 -64 89
-37 75 -40 194 -7 238 30 41 64 63 110 70 l41 6 11 -71 c27 -163 100 -269 211
-306 82 -27 237 -18 313 19 115 55 163 147 156 295 -8 170 -72 231 -389 371
-153 68 -243 123 -312 191 -99 100 -142 221 -135 383 3 76 9 102 35 158 60
128 186 219 349 253 101 21 289 14 379 -15z m2058 -127 c4 -71 7 -170 7 -220
l0 -93 -64 0 -63 0 -12 88 c-14 109 -43 169 -97 199 -36 21 -52 23 -197 23
l-158 0 3 -724 c3 -715 3 -725 24 -753 33 -45 79 -63 162 -63 l72 0 0 -55 0
-55 -391 0 -390 0 3 53 3 52 87 5 c67 4 94 10 115 26 60 45 58 14 61 797 l3
717 -159 0 c-149 0 -161 -1 -193 -23 -63 -42 -84 -91 -104 -239 l-6 -48 -66 0
-66 0 6 152 c4 83 7 182 7 220 l0 68 703 0 704 0 6 -127z m-4158 -1963 c58
-36 80 -89 80 -195 0 -77 -3 -96 -25 -133 -39 -69 -109 -100 -196 -87 -53 8
-97 42 -126 99 -30 58 -30 184 -1 241 26 49 61 83 99 95 45 14 130 4 169 -20z
m815 8 c26 -16 36 -53 20 -73 -18 -21 -40 -18 -40 5 0 28 -35 60 -67 60 -35 0
-73 -36 -73 -70 0 -40 26 -68 97 -103 36 -18 75 -44 86 -59 26 -35 26 -101 0
-136 -57 -77 -243 -59 -243 24 0 30 28 53 41 33 5 -8 9 -20 9 -26 0 -26 40
-53 75 -53 42 0 85 37 85 72 0 38 -26 65 -98 103 -76 40 -102 73 -102 132 0
73 57 117 142 109 25 -3 56 -11 68 -18z m1140 -43 c0 -42 -3 -55 -15 -55 -10
0 -15 10 -15 28 0 39 -17 52 -67 52 l-43 0 0 -172 c0 -145 3 -174 17 -190 9
-10 24 -18 35 -18 10 0 18 -4 18 -10 0 -6 -38 -10 -95 -10 -98 0 -117 7 -65
27 l30 11 0 181 0 181 -39 0 c-42 0 -55 -10 -65 -52 -3 -16 -13 -28 -21 -28
-11 0 -15 12 -15 48 0 27 3 52 7 55 3 4 80 7 170 7 l163 0 0 -55z m-920 -20
c0 -34 1 -35 40 -35 54 0 56 -27 3 -32 l-38 -3 -3 -109 c-3 -126 8 -156 58
-156 17 0 30 -4 30 -10 0 -25 -110 -23 -127 3 -4 7 -10 71 -13 142 -5 125 -6
130 -27 133 -25 4 -32 22 -8 22 20 0 55 40 55 62 0 10 7 18 15 18 10 0 15 -11
15 -35z m1520 0 c0 -34 1 -35 40 -35 54 0 56 -27 3 -32 l-38 -3 -3 -109 c-3
-126 8 -156 58 -156 17 0 30 -4 30 -10 0 -25 -110 -23 -127 3 -4 7 -10 71 -13
142 -5 125 -6 130 -27 133 -25 4 -32 22 -8 22 20 0 55 40 55 62 0 10 7 18 15
18 10 0 15 -11 15 -35z m380 -43 c48 -23 70 -71 70 -152 0 -80 -22 -128 -70
-153 -43 -22 -123 -17 -152 10 -43 39 -64 114 -52 190 15 101 112 151 204 105z
m401 8 c11 -6 19 -21 19 -35 0 -14 -8 -29 -19 -35 -27 -14 -28 -13 -35 15 -8
31 -36 33 -62 4 -16 -17 -20 -40 -22 -126 l-4 -104 31 -12 c51 -19 36 -27 -54
-27 -87 0 -104 8 -60 28 25 11 25 13 25 132 0 119 0 121 -25 132 -39 18 -29
29 23 26 40 -3 47 -6 50 -26 3 -22 4 -22 32 8 29 31 65 39 101 20z m294 -10
c13 -11 22 -60 11 -60 -2 0 -11 -3 -19 -6 -10 -3 -17 3 -21 21 -10 38 -48 52
-81 31 -19 -13 -25 -24 -23 -44 2 -21 15 -33 59 -57 84 -44 99 -61 99 -110 0
-64 -33 -90 -114 -90 -72 0 -96 14 -96 55 0 30 28 50 35 25 3 -8 7 -22 10 -30
10 -34 96 -30 115 5 18 35 2 57 -66 91 -72 37 -94 60 -94 100 0 33 33 76 63
82 36 8 106 0 122 -13z m-3295 1 c0 -5 -9 -13 -20 -16 -27 -9 -25 -24 9 -64
l28 -34 21 35 c26 42 27 54 7 62 -35 13 -11 26 50 26 63 0 85 -12 45 -25 -27
-9 -112 -114 -103 -128 22 -38 97 -128 114 -137 37 -20 19 -30 -56 -30 -41 0
-75 3 -75 6 0 3 10 14 22 23 l21 18 -33 46 c-18 26 -34 47 -35 47 -1 0 -14
-18 -29 -40 -31 -47 -33 -70 -6 -77 44 -12 16 -23 -55 -23 -73 0 -99 12 -51
24 13 3 47 35 75 71 l52 66 -47 60 c-25 33 -57 65 -70 71 -43 20 -26 28 56 28
44 0 80 -4 80 -9z m970 -114 c0 -142 10 -167 64 -167 57 0 70 26 74 146 4 103
4 104 -22 115 -41 19 -31 29 29 29 l55 0 0 -140 c0 -140 0 -140 25 -152 39
-18 30 -28 -25 -28 -43 0 -50 3 -50 20 0 25 -12 26 -27 0 -14 -21 -70 -35
-108 -26 -13 3 -34 16 -45 28 -17 19 -20 35 -20 130 0 95 -2 110 -20 128 -11
11 -24 20 -30 20 -5 0 -10 5 -10 10 0 6 25 10 55 10 l55 0 0 -123z m840 0 c0
-142 10 -167 64 -167 57 0 70 26 74 146 4 103 4 104 -22 115 -41 19 -31 29 29
29 l55 0 0 -140 c0 -140 0 -140 25 -152 39 -18 30 -28 -25 -28 -43 0 -50 3
-50 20 0 25 -12 26 -27 0 -14 -21 -70 -35 -108 -26 -13 3 -34 16 -45 28 -17
19 -20 35 -20 130 0 95 -2 110 -20 128 -11 11 -24 20 -30 20 -5 0 -10 5 -10
10 0 6 25 10 55 10 l55 0 0 -123z"/>
<path d="M2071 4878 c-291 -32 -431 -283 -431 -773 0 -491 143 -746 435 -774
330 -31 511 137 566 527 16 112 6 503 -15 593 -20 87 -58 186 -90 238 -63 99
-178 174 -284 186 -31 3 -68 7 -82 9 -14 1 -58 -1 -99 -6z"/>
<path d="M1914 2881 c-45 -27 -59 -71 -59 -181 0 -72 5 -103 18 -127 33 -61
111 -81 162 -41 41 32 55 76 55 173 0 50 -6 99 -14 119 -29 70 -100 95 -162
57z"/>
<path d="M4889 2764 c-22 -23 -24 -34 -24 -114 0 -80 2 -91 24 -114 29 -30 69
-34 100 -8 46 37 46 207 0 245 -31 25 -71 21 -100 -9z"/>
</g>
</svg>
