<?xml version="1.0" standalone="no"?>
<!DOCTYPE svg PUBLIC "-//W3C//DTD SVG 20010904//EN"
 "http://www.w3.org/TR/2001/REC-SVG-20010904/DTD/svg10.dtd">
<svg version="1.0" xmlns="http://www.w3.org/2000/svg"
 width="750.000000pt" height="750.000000pt" viewBox="0 0 750.000000 750.000000"
 preserveAspectRatio="xMidYMid meet">
<metadata>
Created by potrace 1.11, written by Peter Selinger 2001-2013
</metadata>
<g transform="translate(0.000000,750.000000) scale(0.100000,-0.100000)"
fill="#000000" stroke="none">
<path d="M0 3750 l0 -3750 3750 0 3750 0 0 3750 0 3750 -3750 0 -3750 0 0
-3750z m7320 5 l0 -3565 -3565 0 -3565 0 0 3565 0 3565 3565 0 3565 0 0 -3565z"/>
<path d="M1968 5004 c-253 -45 -454 -217 -539 -460 -96 -277 -89 -664 17 -917
88 -209 262 -360 479 -414 98 -24 344 -24 435 0 315 85 509 328 560 704 20
144 8 383 -24 508 -85 329 -286 528 -585 580 -102 18 -240 18 -343 -1z m284
-129 c106 -12 221 -87 284 -186 32 -52 70 -151 90 -238 21 -90 31 -481 15
-593 -47 -331 -183 -501 -423 -527 -389 -42 -578 211 -578 774 0 408 93 642
293 735 61 29 178 51 237 44 14 -2 51 -6 82 -9z"/>
<path d="M3796 5005 c-163 -34 -289 -125 -349 -253 -26 -56 -32 -82 -35 -158
-12 -273 105 -423 447 -574 232 -103 309 -153 358 -238 22 -38 28 -61 31 -133
7 -148 -41 -240 -156 -295 -76 -37 -231 -46 -313 -19 -111 37 -184 143 -211
306 l-11 71 -41 -6 c-46 -7 -80 -29 -110 -70 -17 -22 -21 -42 -21 -104 0 -134
60 -223 192 -284 90 -42 213 -62 348 -55 193 11 319 56 423 152 105 97 147
208 140 369 -4 88 -9 110 -37 170 -61 126 -186 223 -416 321 -300 128 -380
204 -393 376 -7 97 17 169 76 228 61 60 118 81 228 81 70 0 89 -4 135 -28 85
-44 139 -137 139 -239 0 -42 1 -43 33 -42 97 2 167 67 167 157 0 114 -85 201
-245 252 -90 29 -278 36 -379 15z"/>
<path d="M4820 4922 c0 -38 -3 -137 -7 -220 l-6 -152 66 0 66 0 6 48 c20 148
41 197 104 239 32 22 44 23 193 23 l159 0 -3 -717 c-3 -783 -1 -752 -61 -797
-21 -16 -48 -22 -115 -26 l-87 -5 -3 -52 -3 -53 390 0 391 0 0 55 0 55 -72 0
c-83 0 -129 18 -162 63 -21 28 -21 38 -24 753 l-3 724 158 0 c145 0 161 -2
197 -23 54 -30 83 -90 97 -199 l12 -88 63 0 64 0 0 93 c0 50 -3 149 -7 220
l-6 127 -704 0 -703 0 0 -68z"/>
<path d="M1906 2920 c-38 -12 -73 -46 -99 -95 -29 -57 -29 -183 1 -241 29 -57
73 -91 126 -99 87 -13 157 18 196 87 22 37 25 56 25 133 0 106 -22 159 -80
195 -39 24 -124 34 -169 20z m129 -42 c41 -32 55 -76 55 -173 0 -97 -14 -141
-55 -173 -51 -40 -129 -20 -162 41 -23 41 -25 205 -4 256 28 66 113 91 166 49z"/>
<path d="M2744 2916 c-42 -19 -64 -53 -64 -99 0 -59 26 -92 102 -132 72 -38
98 -65 98 -103 0 -35 -43 -72 -85 -72 -35 0 -75 27 -75 53 0 6 -4 18 -9 26
-13 20 -41 -3 -41 -33 0 -83 186 -101 243 -24 26 35 26 101 0 136 -11 15 -50
41 -86 59 -71 35 -97 63 -97 103 0 34 38 70 73 70 32 0 67 -32 67 -60 0 -23
22 -26 40 -5 16 20 6 57 -20 73 -33 20 -110 24 -146 8z"/>
<path d="M3697 2913 c-4 -3 -7 -28 -7 -55 0 -36 4 -48 15 -48 8 0 18 12 21 28
10 42 23 52 65 52 l39 0 0 -181 0 -181 -30 -11 c-52 -20 -33 -27 65 -27 57 0
95 4 95 10 0 6 -8 10 -18 10 -11 0 -26 8 -35 18 -14 16 -17 45 -17 190 l0 172
43 0 c50 0 67 -13 67 -52 0 -18 5 -28 15 -28 12 0 15 13 15 55 l0 55 -163 0
c-90 0 -167 -3 -170 -7z"/>
<path d="M3080 2862 c0 -22 -35 -62 -55 -62 -24 0 -17 -18 8 -22 21 -3 22 -8
27 -133 3 -71 9 -135 13 -142 17 -26 127 -28 127 -3 0 6 -13 10 -30 10 -50 0
-61 30 -58 156 l3 109 38 3 c53 5 51 32 -3 32 -39 0 -40 1 -40 35 0 24 -5 35
-15 35 -8 0 -15 -8 -15 -18z"/>
<path d="M4600 2862 c0 -22 -35 -62 -55 -62 -24 0 -17 -18 8 -22 21 -3 22 -8
27 -133 3 -71 9 -135 13 -142 17 -26 127 -28 127 -3 0 6 -13 10 -30 10 -50 0
-61 30 -58 156 l3 109 38 3 c53 5 51 32 -3 32 -39 0 -40 1 -40 35 0 24 -5 35
-15 35 -8 0 -15 -8 -15 -18z"/>
<path d="M4893 2813 c-59 -11 -103 -112 -87 -200 15 -84 50 -121 120 -129 100
-11 154 48 154 166 0 129 -66 187 -187 163z m96 -40 c46 -38 46 -208 0 -245
-31 -26 -71 -22 -100 8 -22 23 -24 34 -24 114 0 80 2 91 24 114 29 30 69 34
100 9z"/>
<path d="M5310 2790 c-28 -30 -29 -30 -32 -8 -3 20 -10 23 -50 26 -52 3 -62
-8 -23 -26 25 -11 25 -13 25 -132 0 -119 0 -121 -25 -132 -44 -20 -27 -28 60
-28 90 0 105 8 54 27 l-31 12 4 104 c2 86 6 109 22 126 26 29 54 27 62 -4 7
-28 8 -29 35 -15 11 6 19 21 19 35 0 52 -77 61 -120 15z"/>
<path d="M5583 2813 c-30 -6 -63 -49 -63 -82 0 -40 22 -63 94 -100 68 -34 84
-56 66 -91 -19 -35 -105 -39 -115 -5 -3 8 -7 22 -10 30 -7 25 -35 5 -35 -25 0
-41 24 -55 96 -55 81 0 114 26 114 90 0 49 -15 66 -99 110 -44 24 -57 36 -59
57 -2 20 4 31 23 44 33 21 71 7 81 -31 4 -18 11 -24 21 -21 8 3 17 6 19 6 11
0 2 49 -11 60 -16 13 -86 21 -122 13z"/>
<path d="M2250 2802 c0 -5 11 -14 24 -20 13 -6 45 -38 70 -71 l47 -60 -52 -66
c-28 -36 -62 -68 -75 -71 -48 -12 -22 -24 51 -24 71 0 99 11 55 23 -27 7 -25
30 6 77 15 22 28 40 29 40 1 0 17 -21 35 -47 l33 -46 -21 -18 c-12 -9 -22 -20
-22 -23 0 -3 34 -6 75 -6 75 0 93 10 56 30 -17 9 -92 99 -114 137 -9 14 76
119 103 128 40 13 18 25 -45 25 -61 0 -85 -13 -50 -26 20 -8 19 -20 -7 -62
l-21 -35 -28 34 c-34 40 -36 55 -9 64 43 14 16 25 -60 25 -44 0 -80 -4 -80 -8z"/>
<path d="M3270 2800 c0 -5 5 -10 10 -10 6 0 19 -9 30 -20 18 -18 20 -33 20
-128 0 -95 3 -111 20 -130 11 -12 32 -25 45 -28 38 -9 94 5 108 26 15 26 27
25 27 0 0 -17 7 -20 50 -20 55 0 64 10 25 28 -25 12 -25 12 -25 152 l0 140
-55 0 c-60 0 -70 -10 -29 -29 26 -11 26 -12 22 -115 -4 -120 -17 -146 -74
-146 -54 0 -64 25 -64 167 l0 123 -55 0 c-30 0 -55 -4 -55 -10z"/>
<path d="M4110 2800 c0 -5 5 -10 10 -10 6 0 19 -9 30 -20 18 -18 20 -33 20
-128 0 -95 3 -111 20 -130 11 -12 32 -25 45 -28 38 -9 94 5 108 26 15 26 27
25 27 0 0 -17 7 -20 50 -20 55 0 64 10 25 28 -25 12 -25 12 -25 152 l0 140
-55 0 c-60 0 -70 -10 -29 -29 26 -11 26 -12 22 -115 -4 -120 -17 -146 -74
-146 -54 0 -64 25 -64 167 l0 123 -55 0 c-30 0 -55 -4 -55 -10z"/>
</g>
</svg>
